<mxfile host="app.diagrams.net" modified="2020-10-20T02:39:00.297Z" agent="5.0 (Macintosh; Intel Mac OS X 10_15_5) AppleWebKit/605.1.15 (KHTML, like Gecko) Version/13.1.1 Safari/605.1.15" etag="6TTW3pp6kiiKE56CGqpe" version="13.8.0" type="github">
  <diagram id="C5RBs43oDa-KdzZeNtuy" name="Page-1">
    <mxGraphModel dx="1298" dy="882" grid="1" gridSize="10" guides="1" tooltips="1" connect="1" arrows="1" fold="1" page="1" pageScale="1" pageWidth="827" pageHeight="1169" math="0" shadow="0">
      <root>
        <mxCell id="WIyWlLk6GJQsqaUBKTNV-0" />
        <mxCell id="WIyWlLk6GJQsqaUBKTNV-1" parent="WIyWlLk6GJQsqaUBKTNV-0" />
        <mxCell id="ReoomtXqC8dPTG2TTQVZ-0" value="" style="rounded=0;whiteSpace=wrap;html=1;" vertex="1" parent="WIyWlLk6GJQsqaUBKTNV-1">
          <mxGeometry x="120" y="130" width="120" height="440" as="geometry" />
        </mxCell>
        <mxCell id="ReoomtXqC8dPTG2TTQVZ-1" value="&lt;font style=&quot;font-size: 14px&quot;&gt;&lt;span style=&quot;color: rgb(51 , 51 , 51) ; background-color: rgb(255 , 255 , 255)&quot;&gt;①&lt;/span&gt;Inverted &amp;nbsp;Index ES Cluster：&lt;br&gt;keyword search&lt;br&gt;doc rank&lt;/font&gt;" style="text;html=1;align=center;verticalAlign=middle;resizable=0;points=[];autosize=1;" vertex="1" parent="WIyWlLk6GJQsqaUBKTNV-1">
          <mxGeometry x="75" y="75" width="210" height="50" as="geometry" />
        </mxCell>
        <mxCell id="ReoomtXqC8dPTG2TTQVZ-2" value="" style="rounded=0;whiteSpace=wrap;html=1;" vertex="1" parent="WIyWlLk6GJQsqaUBKTNV-1">
          <mxGeometry x="415" y="130" width="120" height="440" as="geometry" />
        </mxCell>
        <mxCell id="ReoomtXqC8dPTG2TTQVZ-3" value="&lt;font style=&quot;font-size: 14px&quot;&gt;&lt;span style=&quot;color: rgb(51 , 51 , 51) ; background-color: rgb(255 , 255 , 255)&quot;&gt;②&lt;/span&gt;Algorithm Team：&lt;br&gt;doc rerank&amp;nbsp;&lt;/font&gt;" style="text;html=1;align=center;verticalAlign=middle;resizable=0;points=[];autosize=1;" vertex="1" parent="WIyWlLk6GJQsqaUBKTNV-1">
          <mxGeometry x="405" y="80" width="140" height="40" as="geometry" />
        </mxCell>
        <mxCell id="ReoomtXqC8dPTG2TTQVZ-4" value="" style="rounded=0;whiteSpace=wrap;html=1;" vertex="1" parent="WIyWlLk6GJQsqaUBKTNV-1">
          <mxGeometry x="705" y="120" width="135" height="440" as="geometry" />
        </mxCell>
        <mxCell id="ReoomtXqC8dPTG2TTQVZ-5" value="&lt;font style=&quot;font-size: 14px&quot;&gt;&lt;span style=&quot;color: rgb(51 , 51 , 51) ; background-color: rgb(255 , 255 , 255)&quot;&gt;③&lt;/span&gt;&amp;nbsp;ES cluster：&lt;br&gt;Snippet HighLight Computing&lt;/font&gt;" style="text;html=1;align=center;verticalAlign=middle;resizable=0;points=[];autosize=1;" vertex="1" parent="WIyWlLk6GJQsqaUBKTNV-1">
          <mxGeometry x="665" y="75" width="200" height="40" as="geometry" />
        </mxCell>
        <mxCell id="ReoomtXqC8dPTG2TTQVZ-6" value="" style="endArrow=classic;html=1;" edge="1" parent="WIyWlLk6GJQsqaUBKTNV-1">
          <mxGeometry width="50" height="50" relative="1" as="geometry">
            <mxPoint x="10" y="239.5" as="sourcePoint" />
            <mxPoint x="120" y="239.5" as="targetPoint" />
          </mxGeometry>
        </mxCell>
        <mxCell id="ReoomtXqC8dPTG2TTQVZ-7" value="&lt;font style=&quot;font-size: 14px&quot;&gt;keyword&lt;/font&gt;" style="edgeLabel;html=1;align=center;verticalAlign=middle;resizable=0;points=[];" vertex="1" connectable="0" parent="ReoomtXqC8dPTG2TTQVZ-6">
          <mxGeometry x="-0.4444" y="-1" relative="1" as="geometry">
            <mxPoint x="19" y="-20.5" as="offset" />
          </mxGeometry>
        </mxCell>
        <mxCell id="ReoomtXqC8dPTG2TTQVZ-8" value="query" style="rounded=1;whiteSpace=wrap;html=1;" vertex="1" parent="WIyWlLk6GJQsqaUBKTNV-1">
          <mxGeometry x="140" y="220" width="80" height="40" as="geometry" />
        </mxCell>
        <mxCell id="ReoomtXqC8dPTG2TTQVZ-9" value="scorer" style="rounded=1;whiteSpace=wrap;html=1;" vertex="1" parent="WIyWlLk6GJQsqaUBKTNV-1">
          <mxGeometry x="140" y="410" width="80" height="40" as="geometry" />
        </mxCell>
        <mxCell id="ReoomtXqC8dPTG2TTQVZ-11" value="" style="endArrow=none;dashed=1;html=1;dashPattern=1 3;strokeWidth=2;entryX=0.5;entryY=1;entryDx=0;entryDy=0;exitX=0.5;exitY=0;exitDx=0;exitDy=0;" edge="1" parent="WIyWlLk6GJQsqaUBKTNV-1" source="ReoomtXqC8dPTG2TTQVZ-9" target="ReoomtXqC8dPTG2TTQVZ-8">
          <mxGeometry width="50" height="50" relative="1" as="geometry">
            <mxPoint x="160" y="350" as="sourcePoint" />
            <mxPoint x="210" y="300" as="targetPoint" />
          </mxGeometry>
        </mxCell>
        <mxCell id="ReoomtXqC8dPTG2TTQVZ-14" value="" style="endArrow=classic;html=1;exitX=1.017;exitY=0.684;exitDx=0;exitDy=0;exitPerimeter=0;" edge="1" parent="WIyWlLk6GJQsqaUBKTNV-1" source="ReoomtXqC8dPTG2TTQVZ-0">
          <mxGeometry width="50" height="50" relative="1" as="geometry">
            <mxPoint x="250" y="460" as="sourcePoint" />
            <mxPoint x="410" y="431" as="targetPoint" />
          </mxGeometry>
        </mxCell>
        <mxCell id="ReoomtXqC8dPTG2TTQVZ-16" value="Thousands of Doc IDs" style="edgeLabel;html=1;align=center;verticalAlign=middle;resizable=0;points=[];" vertex="1" connectable="0" parent="ReoomtXqC8dPTG2TTQVZ-14">
          <mxGeometry x="-0.1074" y="2" relative="1" as="geometry">
            <mxPoint y="-8.98" as="offset" />
          </mxGeometry>
        </mxCell>
        <mxCell id="ReoomtXqC8dPTG2TTQVZ-17" value="hundreds&lt;br&gt;&amp;nbsp;of features&amp;nbsp;" style="rounded=1;whiteSpace=wrap;html=1;" vertex="1" parent="WIyWlLk6GJQsqaUBKTNV-1">
          <mxGeometry x="430" y="400" width="90" height="60" as="geometry" />
        </mxCell>
        <mxCell id="ReoomtXqC8dPTG2TTQVZ-18" value="Top 10 Doc &amp;nbsp;IDs" style="endArrow=classic;html=1;entryX=0.008;entryY=0.711;entryDx=0;entryDy=0;entryPerimeter=0;exitX=1.008;exitY=0.684;exitDx=0;exitDy=0;exitPerimeter=0;" edge="1" parent="WIyWlLk6GJQsqaUBKTNV-1" source="ReoomtXqC8dPTG2TTQVZ-2" target="ReoomtXqC8dPTG2TTQVZ-4">
          <mxGeometry x="-0.1305" y="12" width="50" height="50" relative="1" as="geometry">
            <mxPoint x="540" y="430" as="sourcePoint" />
            <mxPoint x="590" y="420" as="targetPoint" />
            <mxPoint as="offset" />
          </mxGeometry>
        </mxCell>
        <mxCell id="ReoomtXqC8dPTG2TTQVZ-19" value="web page data:&lt;br&gt;title;&lt;br&gt;title terms offset；meta; &lt;br&gt;meta terms offset;&lt;br&gt;content;&lt;br&gt;content terms offset" style="rounded=1;whiteSpace=wrap;html=1;align=left;" vertex="1" parent="WIyWlLk6GJQsqaUBKTNV-1">
          <mxGeometry x="716.25" y="220" width="112.5" height="120" as="geometry" />
        </mxCell>
        <mxCell id="ReoomtXqC8dPTG2TTQVZ-20" value="similarity algorithm：BM25" style="rounded=1;whiteSpace=wrap;html=1;" vertex="1" parent="WIyWlLk6GJQsqaUBKTNV-1">
          <mxGeometry x="712.5" y="400" width="120" height="60" as="geometry" />
        </mxCell>
        <mxCell id="ReoomtXqC8dPTG2TTQVZ-21" value="store" style="text;html=1;strokeColor=none;fillColor=none;align=center;verticalAlign=middle;whiteSpace=wrap;rounded=0;" vertex="1" parent="WIyWlLk6GJQsqaUBKTNV-1">
          <mxGeometry x="749.25" y="200" width="40" height="20" as="geometry" />
        </mxCell>
        <mxCell id="ReoomtXqC8dPTG2TTQVZ-22" value="&amp;nbsp;compute" style="text;html=1;strokeColor=none;fillColor=none;align=center;verticalAlign=middle;whiteSpace=wrap;rounded=0;" vertex="1" parent="WIyWlLk6GJQsqaUBKTNV-1">
          <mxGeometry x="749.25" y="380" width="57" height="20" as="geometry" />
        </mxCell>
        <mxCell id="ReoomtXqC8dPTG2TTQVZ-25" value="&lt;font style=&quot;font-size: 14px&quot;&gt;webpage snippet&lt;/font&gt;" style="endArrow=classic;html=1;" edge="1" parent="WIyWlLk6GJQsqaUBKTNV-1">
          <mxGeometry x="-0.1429" y="10" width="50" height="50" relative="1" as="geometry">
            <mxPoint x="840" y="430" as="sourcePoint" />
            <mxPoint x="980" y="430" as="targetPoint" />
            <mxPoint as="offset" />
          </mxGeometry>
        </mxCell>
      </root>
    </mxGraphModel>
  </diagram>
</mxfile>
